<?xml version="1.0" encoding="UTF-8"?> <svg xmlns="http://www.w3.org/2000/svg" width="320" height="552" viewBox="0 0 320 552" fill="none"><path fill-rule="evenodd" clip-rule="evenodd" d="M19.7073 78.6319C10.4233 78.6319 0 84.937 0 94.221V518C0 529.629 3.96997 540.331 10.6285 548.824C16.0487 555.737 25 545.785 25 537V537C25 514.909 42.9086 497 65 497H264C286.091 497 304 514.909 304 537V537C304 542.383 310.923 547.234 313.57 542.547C317.664 535.296 320 526.921 320 518V94.7093C320 85.121 309.054 78.6319 299.466 78.6319V78.6319C276.404 78.6319 257.709 59.9366 257.709 36.8748V26.9558V26.9558C257.709 15.3838 249.84 0 238.268 0H80.9049C69.3329 0 61.4644 15.3838 61.4644 26.9558V26.9558V36.8748C61.4644 59.9366 42.7691 78.6319 19.7073 78.6319V78.6319Z" fill="url(#paint0_radial_15_1043)"></path><defs><radialGradient id="paint0_radial_15_1043" cx="0" cy="0" r="1" gradientUnits="userSpaceOnUse" gradientTransform="translate(160 284) rotate(90.0181) scale(436.176 245.733)"><stop stop-color="#55E2AF"></stop><stop offset="1" stop-color="#002A6A"></stop></radialGradient></defs></svg> 